<svg width="90" height="118" viewBox="0 0 90 118" fill="none" xmlns="http://www.w3.org/2000/svg">
<g clip-path="url(#clip0)">
<path d="M45.0006 69.3671L36.4911 47.617H20.0477L45.0006 95.4307L69.9535 47.617H53.5101L45.0006 69.3671Z" fill="#0BDBB6"/>
<path d="M89.993 69.3124C89.7163 53.2817 85.4314 37.5813 77.5359 23.6685C74.5251 18.3364 70.7359 13.4923 66.2957 9.29913C65.395 8.46473 64.4757 7.68329 63.538 6.95481C62.7336 6.32358 61.9201 5.73577 61.0977 5.19136C60.9802 5.11192 60.8692 5.03377 60.7454 4.96084C60.6215 4.88791 60.3711 4.71859 60.1866 4.60528C60.002 4.49198 59.8343 4.38518 59.6278 4.27838L59.1813 4.0179C55.199 1.62815 50.7016 0.2494 46.0751 0L43.9277 0C39.2928 0.243642 34.7861 1.62074 30.7957 4.01269L30.3492 4.27317C30.1711 4.37997 29.9917 4.48677 29.7904 4.60008C29.5891 4.71338 29.411 4.83711 29.2316 4.95563C29.0522 5.07415 28.9967 5.10801 28.8793 5.18615C28.0603 5.73056 27.2468 6.31837 26.439 6.9496C25.5012 7.67808 24.5708 8.45952 23.6477 9.29392C19.2288 13.4937 15.459 18.3387 12.4643 23.6672C4.5732 37.5825 0.287764 53.2819 0.00461527 69.3124V69.8763C-0.041071 75.3649 0.613863 80.8366 1.95325 86.1563C4.77901 95.1967 10.3282 103.123 17.8278 108.83C25.3274 114.537 34.4041 117.742 43.7935 117.997H46.1938C55.5847 117.742 64.6628 114.537 72.1633 108.828C79.6638 103.12 85.213 95.192 88.0379 86.1498C89.3812 80.8306 90.0401 75.3589 89.9982 69.8698C89.9982 69.6901 89.9982 69.5039 89.993 69.3124ZM80.4434 74.5077C80.2954 76.5008 80.0343 78.4837 79.6613 80.4466C79.6613 80.4466 79.6613 80.4466 79.6613 80.4753C77.9448 88.2804 73.6913 95.282 67.5775 100.366C61.4637 105.45 53.8408 108.325 45.9215 108.533H44.1148C36.1958 108.325 28.5732 105.45 22.4596 100.366C16.3461 95.2816 12.0927 88.2802 10.3763 80.4753C10.3763 80.4753 10.3763 80.4753 10.3763 80.4466C10.0034 78.4837 9.74225 76.5008 9.59424 74.5077C9.48197 73.0034 9.42131 71.4535 9.42131 69.8581C9.54415 58.9662 11.7272 48.1982 15.8531 38.133C15.9254 37.9532 16.0041 37.767 16.0815 37.569C16.2493 37.1627 16.4171 36.7628 16.5977 36.3578C16.6532 36.2275 16.7152 36.0869 16.7758 35.9514C17.9066 33.3756 19.1797 30.8658 20.5892 28.434C27.5733 16.4102 36.479 9.49579 45.0001 9.47886C53.5212 9.46193 62.4217 16.4102 69.4445 28.4639C70.8518 30.897 72.1249 33.4066 73.2579 35.9814C73.3199 36.1116 73.387 36.2523 73.436 36.3877C73.6141 36.7941 73.7819 37.1939 73.9522 37.599C74.0309 37.7787 74.1084 37.9649 74.1806 38.1629C78.3064 48.2278 80.4894 58.9953 80.6124 69.8868C80.6124 71.464 80.5505 73.0125 80.4395 74.5194L80.4434 74.5077Z" fill="#0BDBB6"/>
</g>
<defs>
<clipPath id="clip0">
<rect width="90" height="118" fill="white"/>
</clipPath>
</defs>
</svg>
